<?xml version="1.0" encoding="UTF-8" standalone="no"?>
<!-- Created with Inkscape (http://www.inkscape.org/) -->

<svg
   xmlns:dc="http://purl.org/dc/elements/1.1/"
   xmlns:cc="http://creativecommons.org/ns#"
   xmlns:rdf="http://www.w3.org/1999/02/22-rdf-syntax-ns#"
   xmlns:svg="http://www.w3.org/2000/svg"
   xmlns="http://www.w3.org/2000/svg"
   xmlns:sodipodi="http://sodipodi.sourceforge.net/DTD/sodipodi-0.dtd"
   xmlns:inkscape="http://www.inkscape.org/namespaces/inkscape"
   id="svg2"
   version="1.1"
   inkscape:version="0.91 r13725"
   xml:space="preserve"
   width="744.09998"
   height="1052.3625"
   viewBox="0 0 744.09998 1052.3625"
   sodipodi:docname="logo-old.svg"><metadata
     id="metadata8"><rdf:RDF><cc:Work
         rdf:about=""><dc:format>image/svg+xml</dc:format><dc:type
           rdf:resource="http://purl.org/dc/dcmitype/StillImage" /><dc:title></dc:title></cc:Work></rdf:RDF></metadata><defs
     id="defs6"><clipPath
       clipPathUnits="userSpaceOnUse"
       id="clipPath16"><path
         d="m 0,841.89 595.28,0 L 595.28,0 0,0 0,841.89 Z"
         id="path18"
         inkscape:connector-curvature="0" /></clipPath><clipPath
       clipPathUnits="userSpaceOnUse"
       id="clipPath24"><path
         d="m 146.573,633.602 337.409,0 0,-391.165 -337.409,0 0,391.165 z"
         id="path26"
         inkscape:connector-curvature="0" /></clipPath><clipPath
       id="clipPath3508"
       clipPathUnits="userSpaceOnUse"><path
         inkscape:connector-curvature="0"
         id="path3510"
         d="m 0,841.89 595.28,0 L 595.28,0 0,0 0,841.89 Z" /></clipPath><clipPath
       id="clipPath3516"
       clipPathUnits="userSpaceOnUse"><path
         inkscape:connector-curvature="0"
         id="path3518"
         d="m 146.573,633.602 337.409,0 0,-391.165 -337.409,0 0,391.165 z" /></clipPath><clipPath
       id="clipPath3640"
       clipPathUnits="userSpaceOnUse"><path
         inkscape:connector-curvature="0"
         id="path3642"
         d="m 0,841.89 595.28,0 L 595.28,0 0,0 0,841.89 Z" /></clipPath><clipPath
       id="clipPath3648"
       clipPathUnits="userSpaceOnUse"><path
         inkscape:connector-curvature="0"
         id="path3650"
         d="m 63.1401,476.065 461.4429,0 0,-135.325 -461.4429,0 0,135.325 z" /></clipPath><clipPath
       id="clipPath3742"
       clipPathUnits="userSpaceOnUse"><path
         inkscape:connector-curvature="0"
         id="path3744"
         d="m 0,841.89 595.28,0 L 595.28,0 0,0 0,841.89 Z" /></clipPath><clipPath
       id="clipPath3750"
       clipPathUnits="userSpaceOnUse"><path
         inkscape:connector-curvature="0"
         id="path3752"
         d="m 146.573,633.602 337.409,0 0,-391.165 -337.409,0 0,391.165 z" /></clipPath><clipPath
       id="clipPath3874"
       clipPathUnits="userSpaceOnUse"><path
         inkscape:connector-curvature="0"
         id="path3876"
         d="m 0,841.89 595.28,0 L 595.28,0 0,0 0,841.89 Z" /></clipPath><clipPath
       id="clipPath3882"
       clipPathUnits="userSpaceOnUse"><path
         inkscape:connector-curvature="0"
         id="path3884"
         d="m 146.573,633.602 337.409,0 0,-391.165 -337.409,0 0,391.165 z" /></clipPath><clipPath
       id="clipPath4242"
       clipPathUnits="userSpaceOnUse"><path
         inkscape:connector-curvature="0"
         id="path4244"
         d="m 0,841.89 595.28,0 L 595.28,0 0,0 0,841.89 Z" /></clipPath><clipPath
       id="clipPath4250"
       clipPathUnits="userSpaceOnUse"><path
         inkscape:connector-curvature="0"
         id="path4252"
         d="m 146.573,633.602 337.409,0 0,-391.165 -337.409,0 0,391.165 z" /></clipPath><clipPath
       id="clipPath4374"
       clipPathUnits="userSpaceOnUse"><path
         inkscape:connector-curvature="0"
         id="path4376"
         d="m 0,841.89 595.28,0 L 595.28,0 0,0 0,841.89 Z" /></clipPath><clipPath
       id="clipPath4382"
       clipPathUnits="userSpaceOnUse"><path
         inkscape:connector-curvature="0"
         id="path4384"
         d="m 146.573,633.602 337.739,0 0,-391.165 -337.739,0 0,391.165 z" /></clipPath></defs><sodipodi:namedview
     pagecolor="#ffffff"
     bordercolor="#666666"
     borderopacity="1"
     objecttolerance="10"
     gridtolerance="10"
     guidetolerance="10"
     inkscape:pageopacity="0"
     inkscape:pageshadow="2"
     inkscape:window-width="1043"
     inkscape:window-height="672"
     id="namedview4"
     showgrid="false"
     inkscape:zoom="0.63429547"
     inkscape:cx="321.60983"
     inkscape:cy="681.93468"
     inkscape:window-x="23"
     inkscape:window-y="12"
     inkscape:window-maximized="0"
     inkscape:current-layer="g3634"
     inkscape:snap-text-baseline="true" /><g
     id="g10"
     inkscape:groupmode="layer"
     inkscape:label="图案"
     transform="matrix(1.25,0,0,-1.25,0,1052.3625)"><flowRoot
       xml:space="preserve"
       id="flowRoot3467"
       style="fill:black;stroke:none;stroke-opacity:1;stroke-width:1px;stroke-linejoin:miter;stroke-linecap:butt;fill-opacity:1;font-family:sans-serif;font-style:normal;font-weight:normal;font-size:40px;line-height:125%;letter-spacing:0px;word-spacing:0px"><flowRegion
         id="flowRegion3469"><rect
           id="rect3471"
           width="161.64467"
           height="73.576195"
           x="247.48357"
           y="484.93402" /></flowRegion><flowPara
         id="flowPara3473" /></flowRoot><g
       inkscape:label="英文"
       id="g3634"
       transform="matrix(0.6207425,0,0,0.54725621,227.24311,269.43003)"
       style="fill:#00bfff;fill-opacity:1"><g
         id="g3636"
         style="fill:#00bfff;fill-opacity:1"
         transform="translate(-34.541073,41.483958)"><g
           clip-path="url(#clipPath3640)"
           id="g3638"
           style="fill:#00bfff;fill-opacity:1"><g
             id="g3644"
             style="fill:#00bfff;fill-opacity:1"><g
               id="g3646"
               style="fill:#00bfff;fill-opacity:1" /><g
               id="g3652"
               style="fill:#00bfff;fill-opacity:1"><g
                 id="g3654"
                 clip-path="url(#clipPath3648)"
                 style="fill:#00bfff;fill-opacity:1"><g
                   id="g3656"
                   transform="translate(521.7603,433.3252)"
                   style="fill:#00bfff;fill-opacity:1"><path
                     inkscape:connector-curvature="0"
                     id="path3658"
                     style="fill:#00bfff;fill-opacity:1;fill-rule:nonzero;stroke:none"
                     d="M 0,0 C 4.13,-6.88 2.76,-12.13 1.88,-17.88 -2.62,-33 -12,-34.76 -16.12,-36.13 -18,-36.26 -43.87,-36.5 -53.74,-36.5 c 0,0 -0.13,13.12 -0.13,17.24 l 34.25,0 c 3.38,1.13 4.25,3.76 4.88,5.88 0.74,6.12 -3.26,7.62 -5.26,8.62 -1,0.38 -29,0 -34.62,0.13 -2,-0.37 -4.25,-2.25 -5.62,-4.25 -1.38,-1.75 -0.5,-15.25 -0.5,-26.12 0.5,-7.76 3.37,-7.88 5.74,-8.88 3.76,-0.25 25.63,-0.12 33.26,-0.12 l 0,-17.34 c -2.5,0.03 -18.76,0.21 -35,0 -15.63,3.28 -18.76,13.21 -20.26,16.58 -1,1.63 -0.62,16.63 -0.62,36.88 3.5,18.5 19.12,20.34 19.12,20.34 0,0 30,0.04 40.88,0 C -5.74,8.92 -4,5.24 0,0" /></g><g
                   id="g3660"
                   transform="translate(429.7603,425.8252)"
                   style="fill:#00bfff;fill-opacity:1"><path
                     inkscape:connector-curvature="0"
                     id="path3662"
                     style="fill:#00bfff;fill-opacity:1;fill-rule:nonzero;stroke:none"
                     d="m 0,0 c 0.38,-1.88 0,-45.76 0,-53.84 -1.37,0.16 -12.87,0.21 -17.72,0 0.15,0.16 0.1,44.71 -0.02,50.08 0.37,2.88 -3.5,5 -4.76,5.76 -1.12,0.12 -32.5,-0.13 -33.87,0 -0.25,5.24 0,17.93 0,17.93 0,0 19.25,0.07 35.25,0 C -4.87,16.61 -1.24,4.12 0,0" /></g><g
                   id="g3664"
                   transform="translate(366.52,476.0654)"
                   style="fill:#00bfff;fill-opacity:1"><path
                     inkscape:connector-curvature="0"
                     id="path3666"
                     style="fill:#00bfff;fill-opacity:1;fill-rule:nonzero;stroke:none"
                     d="m 0,0 0,-104.08 c -4.76,-0.04 -17.5,-0.22 -18.13,0 L -18.13,0 0,0 Z" /></g><g
                   id="g3668"
                   transform="translate(333.9702,389.8252)"
                   style="fill:#00bfff;fill-opacity:1"><path
                     inkscape:connector-curvature="0"
                     id="path3670"
                     style="fill:#00bfff;fill-opacity:1;fill-rule:nonzero;stroke:none"
                     d="m 0,0 c 0,0 0.05,-9.26 0,-17.76 -1.41,-0.24 -34.33,0.13 -49.83,0 -13.62,0.76 -18.25,9.76 -20.75,14.13 -2.75,6.63 -1.75,28.25 -1.37,40.25 1.74,14 16.24,18.38 19.24,19.25 0.76,0.13 47.13,0 52.71,0 l 0,-18.08 -48.83,0 c -6.5,-1.5 -5.67,-6.67 -5.67,-6.67 0,0 0.05,-23 0.05,-26.38 0.5,-1.5 3.24,-3.62 5,-4.62 C -48.33,0.12 -4.08,-0.13 0,0" /></g><g
                   id="g3672"
                   transform="translate(246.6401,445.6953)"
                   style="fill:#00bfff;fill-opacity:1"><path
                     inkscape:connector-curvature="0"
                     id="path3674"
                     style="fill:#00bfff;fill-opacity:1;fill-rule:nonzero;stroke:none"
                     d="m 0,0 c 0,-9.42 -0.17,-84.67 -0.17,-85.42 -0.75,-3.33 -2.75,-16.41 -20.5,-19.5 -5,0 -35.16,-0.08 -35.75,0 0,4 0.09,15.17 0.04,17.67 4.05,0 33.26,-0.04 33.76,0 0.79,0.46 4.41,1.42 4.58,5.08 0,4.84 -0.04,82.17 -0.04,82.17 0,0 16.91,-0.08 18.08,0" /></g><g
                   id="g3676"
                   transform="translate(222.02,372.0654)"
                   style="fill:#00bfff;fill-opacity:1"><path
                     inkscape:connector-curvature="0"
                     id="path3678"
                     style="fill:#00bfff;fill-opacity:1;fill-rule:nonzero;stroke:none"
                     d="m 0,0 -35.26,0 c -19.74,6.26 -20,16.26 -21.12,20 -0.38,1.5 -0.25,53.63 -0.25,53.63 l 18.08,0 0,-48.75 c 0,-5.17 3.29,-6 5.17,-6.88 C -32.76,18 -2.76,17.63 0,17.88 -0.13,17.38 0,6.63 0,0" /></g><g
                   id="g3680"
                   transform="translate(158.8901,469.3252)"
                   style="fill:#00bfff;fill-opacity:1"><path
                     inkscape:connector-curvature="0"
                     id="path3682"
                     style="fill:#00bfff;fill-opacity:1;fill-rule:nonzero;stroke:none"
                     d="m 0,0 c 0.13,-0.63 0,-13.38 0,-17.76 -0.25,-0.12 -32.87,0.26 -38.5,0.19 -0.25,-1.2 0,-67.43 0,-79.69 -0.37,0.26 -10.63,0 -18,0 0,0 -0.25,68 -0.25,79.63 -0.62,0.13 -39,0 -39,0 l 0,17.63 C -95.37,0.12 -8.5,0 0,0" /></g></g></g></g></g></g><text
         xml:space="preserve"
         style="font-style:normal;font-weight:normal;font-size:65.17779541px;line-height:125%;font-family:sans-serif;letter-spacing:0px;word-spacing:0px;fill:#008080;fill-opacity:1;stroke:none;stroke-width:1px;stroke-linecap:butt;stroke-linejoin:miter;stroke-opacity:1"
         x="31.307829"
         y="-299.93561"
         id="text3421"
         sodipodi:linespacing="125%"
         transform="scale(0.93894386,-1.0650264)"><tspan
           sodipodi:role="line"
           id="tspan3423"
           x="31.307829"
           y="-299.93561">Care with Love</tspan></text>
</g><g
       inkscape:label="图案修改2"
       id="g4368"
       transform="matrix(0.38061354,0,0,0.36405324,70.930541,346.32369)"><g
         id="g4370"><g
           clip-path="url(#clipPath4374)"
           id="g4372"><g
             id="g4378"><g
               id="g4380" /><g
               id="g4386"><g
                 id="g4388"
                 clip-path="url(#clipPath4382)"><g
                   id="g4390"
                   transform="translate(484.3003,413.1953)"><path
                     inkscape:connector-curvature="0"
                     id="path4392"
                     style="fill:#cccc33;fill-opacity:1;fill-rule:nonzero;stroke:none"
                     d="m 0,0 c 0.34,-16.25 -6.66,-22.33 -8.33,-24 -1.58,-0.75 -69.17,-13.08 -74.33,-13.91 -5.17,-0.84 -75.25,-13.92 -84.92,-15.75 C -177.25,-55.5 -217,-63 -217,-63 c 7.36,5.86 137.17,130.42 153.17,146.42 35.5,4.5 59.25,-58.17 59.25,-58.17 C -1.5,16.25 -0.08,6.59 0,0" /></g><g
                   id="g4394"
                   transform="translate(415.8901,598.9453)"><path
                     inkscape:connector-curvature="0"
                     id="path4396"
                     style="fill:#ff9900;fill-opacity:1;fill-rule:nonzero;stroke:none"
                     d="m 0,0 c 7,-5 26.25,-19.75 26.75,-36.25 -5,-5.5 -158.42,-184.83 -160.83,-187.54 0,0 -1.67,113.54 -1.92,138.54 -0.25,25 -1,91 -1.25,108.5 2,2.75 13.75,16 53.25,9.75 21.25,-4.75 53.5,-11.5 84,-33" /></g><g
                   id="g4398"
                   transform="translate(421.3101,360.5254)"><path
                     inkscape:connector-curvature="0"
                     id="path4400"
                     style="fill:#99cc00;fill-opacity:1;fill-rule:nonzero;stroke:none"
                     d="M 0,0 C 8.25,-4.08 8.66,-11.25 9.5,-16.41 9,-45.58 -6.67,-65.08 -11.59,-71.75 -26.67,-86.83 -33.75,-86.83 -37.17,-87 c -0.83,0.5 -60.75,29.92 -65.83,32.25 -5.09,2.34 -74.88,36.92 -74.88,36.92 -1.34,0.66 115.96,11.75 120.38,12.25 3.66,0.17 51.25,4.92 57.5,5.58" /></g><g
                   id="g4402"
                   transform="translate(336.3901,279.7754)"><path
                     inkscape:connector-curvature="0"
                     id="path4404"
                     style="fill:#66cc00;fill-opacity:1;fill-rule:nonzero;stroke:none"
                     d="m 0,0 c 1.67,-10.33 -10.5,-18.08 -17.58,-22.66 -14.42,-9.09 -28.84,-12.25 -38.25,-14.09 -9,-1.83 -17,1.09 -19.5,2.17 -1.92,3.25 -14.84,41.75 -15.42,43.33 C -91.33,10.34 -112,68.92 -112,68.92 -110.92,68.25 -71.67,44.5 -64.42,39.84 -57.17,35.17 -1,0.92 0,0" /></g><g
                   id="g4406"
                   transform="translate(264.6001,380.2354)"><path
                     inkscape:connector-curvature="0"
                     id="path4408"
                     style="fill:#3399cc;fill-opacity:1;fill-rule:nonzero;stroke:none"
                     d="m 0,0 c 0,-1.54 0.04,-2.04 -1.54,-2.58 -1.75,-1 -22.21,-11.92 -22.54,-12.09 -0.55,-0.16 -1.44,-0.78 -0.92,0.3 0,0 10.92,22.7 11.75,24 0.54,0.2 3.33,1.2 5.96,-1.09 C -4.42,6.21 -0.21,2.04 0,0" /></g><g
                   id="g4410"
                   transform="translate(261.5801,368.7549)"><path
                     inkscape:connector-curvature="0"
                     id="path4412"
                     style="fill:#0099ff;fill-opacity:1;fill-rule:nonzero;stroke:none"
                     d="m 0,0 c 0.18,-6.369 -1.25,-7.1 -2.11,-8.39 -0.89,-0.089 -5.45,0.43 -7.85,0.72 -1.88,0.36 -14,1.86 -14,1.86 0,0 -0.4,0.21 -1.06,0.35 0.25,0 19.08,8.03 21.89,9.21 C -1.06,4.131 0,0.69 0,0" /></g><g
                   id="g4414"
                   transform="translate(251.9702,359.1152)"><path
                     inkscape:connector-curvature="0"
                     id="path4416"
                     style="fill:#3399ff;fill-opacity:1;fill-rule:nonzero;stroke:none"
                     d="m 0,0 c 1.75,-0.67 0.25,-2.17 -1.41,-4.42 -1.67,-2.25 -5.25,-3.17 -6.34,-3 C -8.25,-6.59 -17.83,4 -17.83,4 -18.86,5.14 -1.75,0.66 0,0" /></g><g
                   id="g4418"
                   transform="translate(250.6401,399.1152)"><path
                     inkscape:connector-curvature="0"
                     id="path4420"
                     style="fill:#00ccff;fill-opacity:1;fill-rule:nonzero;stroke:none"
                     d="m 0,0 c -1.25,-3.75 -9.75,-28.13 -10.04,-28.88 -0.21,-0.62 -0.17,-1.08 -0.63,-0.96 0,0 -13.83,30.04 -13.83,30.92 0.54,1 2.12,3.58 7.88,3.63 C -11.33,4.71 -4,5.04 0,0" /></g><g
                   id="g4422"
                   transform="translate(237.4702,271.6953)"><path
                     inkscape:connector-curvature="0"
                     id="path4424"
                     style="fill:#00cc00;fill-opacity:1;fill-rule:nonzero;stroke:none"
                     d="m 0,0 c 0.59,-2.67 -5.58,-5.25 -10.83,-6.67 -11.25,-2.25 -26.5,2 -34.17,4.25 -16.75,6.5 -18.83,13.42 -19.08,14.59 0,0.75 30.58,52.66 32.25,55.39 1.67,2.73 12.12,21.1 12.12,21.1 0,0 19.13,-85.99 19.71,-88.66" /></g><g
                   id="g4426"
                   transform="translate(226.7202,389.7754)"><path
                     inkscape:connector-curvature="0"
                     id="path4428"
                     style="fill:#00cccc;fill-opacity:1;fill-rule:nonzero;stroke:none"
                     d="m 0,0 c 1.09,-1.62 9.42,-15.16 9.84,-16.66 -1.8,0.5 -19.8,7.83 -23.59,9.37 -3.79,1.54 -22.08,9.13 -22.08,9.13 0,0 -1.29,2.45 0.37,4.75 1.67,2.29 7.67,10.08 19.55,12.5 3,0.04 4.62,0.54 5.37,-1 C -9.54,16.29 -1.08,1.59 0,0" /></g><g
                   id="g4430"
                   transform="translate(225.1001,375.6553)"><path
                     inkscape:connector-curvature="0"
                     id="path4432"
                     style="fill:#009999;fill-opacity:1;fill-rule:nonzero;stroke:none"
                     d="m 0,0 c 6.04,-1.38 4.12,-1.83 3.62,-2.09 -1.7,-0.2 -23.5,-5.58 -25.16,-6 -1.67,-0.41 -21.17,-5.2 -23.92,-5.83 -2.75,-0.62 -12.29,-3.17 -13.96,-3.33 -8.71,4.42 -4.37,17.58 -3,22.16 3.04,8.84 9.75,11.34 9.75,11.34 C -49.92,15.46 -5.63,1.37 0,0" /></g><g
                   id="g4434"
                   transform="translate(221.3501,370.1152)"><path
                     inkscape:connector-curvature="0"
                     id="path4436"
                     style="fill:#009966;fill-opacity:1;fill-rule:nonzero;stroke:none"
                     d="M 0,0 C -0.13,-1.17 -1.92,-3.17 -2.67,-4.09 -3.42,-5 -43.04,-58.46 -45.04,-61.17 c -5.84,-1.96 -10.55,1.96 -12.84,3.38 -5.12,2.83 -11.41,12.2 -14.66,17.66 -4.46,7.67 -1,14.21 -0.25,15.08 1.46,0.59 44.37,15.38 47.12,16.3 C -23.09,-7.96 0,0 0,0" /></g></g></g></g></g></g></g></g></svg>